<svg width="23" height="23" viewBox="0 0 23 23" fill="none" xmlns="http://www.w3.org/2000/svg">
<g id="check-out.42cbd641b3844c71fe81.svg">
<path id="Vector" d="M17.3511 7.83333H18.3237C19.112 7.83333 19.75 8.47133 19.75 9.25966V18.3246C19.75 19.112 19.112 19.75 18.3237 19.75H8.34302C7.55469 19.75 6.91669 19.112 6.91669 18.3237V17" stroke="#323232" stroke-width="1.375" stroke-linecap="round" stroke-linejoin="round"/>
<path id="Vector_2" fill-rule="evenodd" clip-rule="evenodd" d="M4.16761 17H14.5369C15.1502 17 15.7222 16.6938 16.0623 16.1833L16.7351 15.1731C17.1366 14.5708 17.3511 13.8632 17.3511 13.139V6.00001C17.3511 4.98709 16.5307 4.16667 15.5178 4.16667H6.35111C5.33819 4.16667 4.51777 4.98709 4.51777 6.00001V12.468C4.51777 13.0373 4.38486 13.5983 4.13094 14.1079L3.34811 15.6736C3.04286 16.2832 3.48652 17 4.16761 17Z" stroke="#323232" stroke-width="1.375" stroke-linecap="round" stroke-linejoin="round"/>
<path id="Vector_3" d="M8.18164 3.25V5.08333" stroke="#323232" stroke-width="1.375" stroke-linecap="round" stroke-linejoin="round"/>
<path id="Vector_4" d="M13.6816 3.25V5.08333" stroke="#323232" stroke-width="1.375" stroke-linecap="round" stroke-linejoin="round"/>
<path id="Vector_5" d="M8.00751 8.75H13.5075" stroke="#323232" stroke-width="1.375" stroke-linecap="round" stroke-linejoin="round"/>
<path id="Vector_6" d="M8.00751 12.4167H13.5075" stroke="#323232" stroke-width="1.375" stroke-linecap="round" stroke-linejoin="round"/>
</g>
</svg>
