<svg width="23" height="23" viewBox="0 0 23 23" fill="none" xmlns="http://www.w3.org/2000/svg">
<g id="dashboard.3bdfb5487f2cf16dafb2.svg">
<path id="Vector" d="M19.271 14.2471C18.1094 17.543 14.995 19.7476 11.5003 19.7476C8.00579 19.7476 4.89132 17.543 3.7298 14.2471" stroke="#818698" stroke-width="1.375" stroke-linecap="round" stroke-linejoin="round"/>
<path id="Vector_2" d="M19.75 11.5C19.75 6.94365 16.0563 3.25 11.5 3.25C6.94365 3.25 3.25 6.94365 3.25 11.5" stroke="#818698" stroke-width="1.375" stroke-linecap="round" stroke-linejoin="round"/>
<path id="Vector_3" d="M3.25 11.5H4.625" stroke="#818698" stroke-width="1.375" stroke-linecap="round" stroke-linejoin="round"/>
<path id="Vector_4" d="M18.375 11.5H19.75" stroke="#818698" stroke-width="1.375" stroke-linecap="round" stroke-linejoin="round"/>
<path id="Vector_5" fill-rule="evenodd" clip-rule="evenodd" d="M13.6214 8.78426L10.7509 9.96632C10.2103 10.1889 9.81668 10.6669 9.70206 11.2402C9.58744 11.8134 9.76682 12.4061 10.1802 12.8195C10.5936 13.2329 11.1863 13.4123 11.7595 13.2976C12.3328 13.183 12.8108 12.7894 13.0334 12.2488L14.2154 9.37826C14.2853 9.20842 14.2463 9.0132 14.1164 8.88333C13.9865 8.75338 13.7913 8.71437 13.6214 8.78426Z" stroke="#818698" stroke-width="1.375" stroke-linecap="round" stroke-linejoin="round"/>
<path id="Vector_6" d="M5.66626 5.66772L6.63857 6.64003" stroke="#818698" stroke-width="1.375" stroke-linecap="round" stroke-linejoin="round"/>
<path id="Vector_7" d="M11.5 3.25V4.625" stroke="#818698" stroke-width="1.375" stroke-linecap="round" stroke-linejoin="round"/>
<path id="Vector_8" d="M17.3335 5.66772L16.3612 6.64003" stroke="#818698" stroke-width="1.375" stroke-linecap="round" stroke-linejoin="round"/>
</g>
</svg>
