<svg width="19" height="23" viewBox="0 0 19 23" fill="none" xmlns="http://www.w3.org/2000/svg">
<g id="bell.83eb4ba70ebc5fd06101.svg" clip-path="url(#clip0_2_394)">
<path id="Vector" fill-rule="evenodd" clip-rule="evenodd" d="M12.6335 3.15155C12.4559 1.66348 11.1894 0.509766 9.65354 0.509766C8.11764 0.509766 6.8512 1.66348 6.67358 3.15156C4.16984 4.28656 2.42827 6.80771 2.42827 9.73564V14.7554L0.757066 18.0663C0.4212 18.7317 0.904806 19.5176 1.65017 19.5176H6.82296C7.2349 20.6834 8.34667 21.5187 9.65354 21.5187C10.9604 21.5187 12.0722 20.6834 12.4841 19.5176H17.6569C18.4023 19.5176 18.8859 18.7317 18.55 18.0663L16.8788 14.7554V9.73564C16.8788 6.8077 15.1373 4.28654 12.6335 3.15155ZM9.65354 19.5178L9.63062 19.5176H9.67647L9.65354 19.5178ZM14.9853 15.4444L16.0313 17.5167H3.27577L4.32178 15.4444C4.39235 15.3046 4.42911 15.1502 4.42911 14.9936V9.73564C4.42911 6.85026 6.76817 4.5112 9.65354 4.5112C12.5389 4.5112 14.878 6.85026 14.878 9.73564V14.9936C14.878 15.1502 14.9147 15.3046 14.9853 15.4444Z" fill="#92929D"/>
</g>
<defs>
<clipPath id="clip0_2_394">
<rect width="19" height="22" fill="white" transform="translate(0 0.5)"/>
</clipPath>
</defs>
</svg>
