<svg width="23" height="23" viewBox="0 0 23 23" fill="none" xmlns="http://www.w3.org/2000/svg">
<g id="task.647753a52e597148c3fb.svg">
<g id="Group">
<g id="Group_2">
<path id="Path" fill-rule="evenodd" clip-rule="evenodd" d="M7.83337 4.16668L9.02504 2.67709C9.19921 2.45984 9.46229 2.33334 9.74096 2.33334H13.26C13.5387 2.33334 13.8018 2.45984 13.976 2.67709L15.1667 4.16668V5.08334C15.1667 5.58934 14.756 6.00001 14.25 6.00001H8.75004C8.24404 6.00001 7.83337 5.58934 7.83337 5.08334V4.16668Z" stroke="#323232" stroke-width="1.375" stroke-linecap="round" stroke-linejoin="round"/>
<path id="Path_2" d="M7.83335 4.16669H6.00002C4.9871 4.16669 4.16669 4.9871 4.16669 6.00002V17.9167C4.16669 18.9296 4.9871 19.75 6.00002 19.75H17C18.0129 19.75 18.8334 18.9296 18.8334 17.9167V6.00002C18.8334 4.9871 18.0129 4.16669 17 4.16669H15.1667" stroke="#323232" stroke-width="1.375" stroke-linecap="round" stroke-linejoin="round"/>
<path id="Path_3" d="M7.83337 10.5833H15.1667" stroke="#323232" stroke-width="1.375" stroke-linecap="round" stroke-linejoin="round"/>
<path id="Path_4" d="M7.83337 15.1667H15.1667" stroke="#323232" stroke-width="1.375" stroke-linecap="round" stroke-linejoin="round"/>
</g>
</g>
</g>
</svg>
